# xmcd
#
# Track frame offsets: 
#        150
#        17663
#        36584
#        52492
#        66267
#        82679
#        101063
#        124727
#        144792
#        163987
#        180438
#        195833
#
# Disc length: 2842 seconds
#
# Revision: 0
# Processed by: cddbd v1.5.2PL0 Copyright (c) Steve Scherf et al.
# Submitted via: ExactAudioCopyFreeDBPlugin 1.0
#
DISCID=a00b180c
DTITLE=Jamie Clark - The County Q Sessions
DYEAR=2006
DGENRE=Country
TTITLE0=Lonely love
TTITLE1=I'll be alright
TTITLE2=Baby it's you
TTITLE3=Remember me
TTITLE4=Feeling the same way
TTITLE5=Omaha
TTITLE6=Without love
TTITLE7=I
TTITLE8=Let our love grow
TTITLE9=I believe
TTITLE10=She's got a a smile
TTITLE11=Best times
EXTD=
EXTT0=
EXTT1=
EXTT2=
EXTT3=
EXTT4=
EXTT5=
EXTT6=
EXTT7=
EXTT8=
EXTT9=
EXTT10=
EXTT11=
PLAYORDER=
